<svg enable-background="new 35 -63 319 377" height="377" viewBox="35 -63 319 377" width="319" xmlns="http://www.w3.org/2000/svg"><path d="m35-39h148.9v98h-148.9z" fill="#89479b"/><text fill="#89479b" font-family="'GothamRounded-Book'" font-size="16" transform="translate(43 -39)">flex-start</text><path d="m35 90h148.9v98h-148.9z" fill="#89479b"/><text fill="#89479b" font-family="'GothamRounded-Book'" font-size="16" transform="translate(43 90)">center</text><path d="m35 216h148.9v98h-148.9z" fill="#89479b"/><text fill="#89479b" font-family="'GothamRounded-Book'" font-size="16" transform="translate(43 216)">space-between</text><path d="m194.5 90h148.9v98h-148.9z" fill="#89479b"/><text fill="#89479b" font-family="'GothamRounded-Book'" font-size="16" transform="translate(202.5 90)">stretch</text><path d="m194.5 216h148.9v98h-148.9z" fill="#89479b"/><text fill="#89479b" font-family="'GothamRounded-Book'" font-size="16" transform="translate(202.5 216)">space-around</text><path d="m194.5-39h148.9v98h-148.9z" fill="#89479b"/><text fill="#89479b" font-family="'GothamRounded-Book'" font-size="16" transform="translate(202.5 -39)">flex-end</text><g fill="#e38712"><path d="m38.5-35.5h15.5v19.5h-15.5z"/><path d="m58-35.5h30v19.5h-30z"/><path d="m91.5-35.5h8.5v19.5h-8.5z"/><path d="m38.8-12h26.8v19.5h-26.8z"/><path d="m69-12h26.8v19.5h-26.8z"/><path d="m38.8 11h19.2v19.5h-19.2z"/><path d="m61.4 11h26.6v19.5h-26.6z"/><path d="m99-12h15.3v19.5h-15.3z"/><path d="m117.8-12h63.2v19.5h-63.2z"/><path d="m103.2-35.5h22.3v19.5h-22.3z"/><path d="m128.7-35.5h52.3v19.5h-52.3z"/><path d="m198.7-11.2h15.5v19.5h-15.5z"/><path d="m218.2-11.2h30v19.5h-30z"/><path d="m251.7-11.2h8.5v19.5h-8.5z"/><path d="m198.9 12.2h26.8v19.5h-26.8z"/><path d="m229.2 12.2h26.8v19.5h-26.8z"/><path d="m198.9 35.2h19.2v19.5h-19.2z"/><path d="m221.6 35.2h26.6v19.5h-26.6z"/><path d="m259.2 12.2h15.3v19.5h-15.3z"/><path d="m278 12.2h63.2v19.5h-63.2z"/><path d="m263.4-11.2h22.3v19.5h-22.3z"/><path d="m288.9-11.2h52.3v19.5h-52.3z"/><path d="m38.2 106h15.5v19.5h-15.5z"/><path d="m57.7 106h30v19.5h-30z"/><path d="m91.2 106h8.5v19.5h-8.5z"/><path d="m38.4 129.5h26.8v19.5h-26.8z"/><path d="m68.7 129.5h26.8v19.5h-26.8z"/><path d="m38.4 152.5h19.2v19.5h-19.2z"/><path d="m61.1 152.5h26.6v19.5h-26.6z"/><path d="m98.7 129.5h15.3v19.5h-15.3z"/><path d="m117.5 129.5h63.2v19.5h-63.2z"/><path d="m102.9 106h22.3v19.5h-22.3z"/><path d="m128.4 106h52.3v19.5h-52.3z"/><path d="m38.2 220h15.5v19.5h-15.5z"/><path d="m57.7 220h30v19.5h-30z"/><path d="m91.2 220h8.5v19.5h-8.5z"/><path d="m38.4 254.5h26.8v19.5h-26.8z"/><path d="m68.7 254.5h26.8v19.5h-26.8z"/><path d="m38.4 291h19.2v19.5h-19.2z"/><path d="m61.1 291h26.6v19.5h-26.6z"/><path d="m98.7 254.5h15.3v19.5h-15.3z"/><path d="m117.5 254.5h63.2v19.5h-63.2z"/><path d="m102.9 220h22.3v19.5h-22.3z"/><path d="m128.4 220h52.3v19.5h-52.3z"/><path d="m197.7 222.8h15.5v19.5h-15.5z"/><path d="m217.2 222.8h30v19.5h-30z"/><path d="m250.7 222.8h8.5v19.5h-8.5z"/><path d="m197.9 256.2h26.8v19.5h-26.8z"/><path d="m228.2 256.2h26.8v19.5h-26.8z"/><path d="m197.9 288.8h19.2v19.5h-19.2z"/><path d="m220.6 288.8h26.6v19.5h-26.6z"/><path d="m258.2 256.2h15.3v19.5h-15.3z"/><path d="m277 256.2h63.2v19.5h-63.2z"/><path d="m262.4 222.8h22.3v19.5h-22.3z"/><path d="m287.9 222.8h52.3v19.5h-52.3z"/><path d="m197.7 94h15.5v26.7h-15.5z"/><path d="m217.2 94h30v26.7h-30z"/><path d="m250.7 94h8.5v26.7h-8.5z"/><path d="m197.9 126.2h26.8v26.7h-26.8z"/><path d="m228.2 126.2h26.8v26.7h-26.8z"/><path d="m197.9 157.8h19.2v26.7h-19.2z"/><path d="m220.6 157.8h26.6v26.7h-26.6z"/><path d="m258.2 126.2h15.3v26.7h-15.3z"/><path d="m277 126.2h63.2v26.7h-63.2z"/><path d="m262.4 94h22.3v26.7h-22.3z"/><path d="m287.9 94h52.3v26.7h-52.3z"/></g></svg>